PathFileType	4	(X/Y/Z)	C:\Users\WrightLab\Desktop\Jo\P1_boxCal18.trc
DataRate	CameraRate	NumFrames	NumMarkers	Units	OrigDataRate	OrigDataStartFrame	OrigNumFrames
100.00	100.00	       16	19	mm	100.00	140	       559
Frame#	Time	Headset_Front			Headset_Back			Headset_Left			Headset_Right			Left_Shoulder			Right_Shoulder			Sternum			C7			Left Elbow			Right Elbow			Left Wrist			Right Wrist			Left ASIS			Right ASIS			S2			Left Knee			Right Knee			Left Ankle			Right Ankle			
		X1	Y1	Z1	X2	Y2	Z2	X3	Y3	Z3	X4	Y4	Z4	X5	Y5	Z5	X6	Y6	Z6	X7	Y7	Z7	X8	Y8	Z8	X9	Y9	Z9	X10	Y10	Z10	X11	Y11	Z11	X12	Y12	Z12	X13	Y13	Z13	X14	Y14	Z14	X15	Y15	Z15	X16	Y16	Z16	X17	Y17	Z17	X18	Y18	Z18	X19	Y19	Z19	

140	1.390	-704.72882	1379.55627	-128.62709	-746.05682	1488.19885	-416.40268	-622.07233	1422.84106	-315.83667	-826.13269	1415.63940	-216.86577	-555.91248	1255.87390	-388.04340	-927.85986	1227.97656	-319.43610	-732.46228	1145.06689	-210.81892	-751.10809	1246.92126	-462.78125	-482.58694	934.55853	-425.74527	-1003.49066	958.27814	-376.86908	-389.10513	772.32739	-327.00119	-1083.75427	735.94214	-331.42542	-624.38556	865.45813	-196.79393	-825.94189	860.41656	-189.54182	-735.62708	862.68176	-510.58136	-553.67450	406.96182	-329.11038	-910.08148	454.18793	-215.02515	-570.59900	178.09332	-600.10815	-929.32404	73.64739	-202.87985	
141	1.400	-704.17151	1381.81616	-119.75444	-748.35895	1490.32910	-406.02829	-622.81592	1425.00964	-308.01682	-825.38104	1416.99109	-205.53401	-557.66302	1258.11597	-381.37418	-928.39606	1230.12610	-306.33517	-734.50751	1146.51465	-207.32832	-754.15930	1249.18103	-453.50705	-484.01379	937.29193	-421.30704	-1006.47729	961.41272	-362.65524	-388.52332	774.26752	-325.93552	-1088.22205	739.35095	-315.69144	-625.12756	867.32526	-189.14488	-826.06335	862.39233	-179.72456	-739.34845	864.58978	-501.96631	-551.64569	409.74072	-310.26929	-911.83716	454.66418	-208.59360	-575.38293	186.43576	-582.92810	-929.81427	75.94114	-197.64584	
142	1.410	-703.20837	1383.55334	-110.13014	-750.15979	1492.36572	-396.33896	-623.73218	1427.02722	-298.56747	-825.76953	1418.27295	-194.74246	-559.27960	1259.37756	-373.86346	-928.90131	1232.50000	-293.28207	-732.03223	1149.49878	-191.76787	-756.55994	1251.79028	-443.70105	-484.54236	939.69562	-416.82388	-1009.71234	964.37274	-348.13538	-387.35184	776.89978	-324.39291	-1092.36292	743.51489	-300.09656	-623.86432	869.05060	-181.30963	-825.96082	865.51257	-167.70357	-742.15106	866.59546	-492.96234	-550.43097	412.63879	-291.17389	-913.21790	453.86725	-203.13850	-580.86169	194.45514	-564.14722	-929.60028	76.27200	-196.52367	
143	1.420	-702.87897	1386.04248	-101.13614	-751.50574	1493.69312	-385.63364	-624.24866	1429.29370	-290.36523	-825.88788	1419.71997	-184.02530	-560.63702	1261.58679	-367.20880	-928.63629	1235.02405	-280.76480	-731.84528	1148.57776	-189.01422	-759.52734	1254.31445	-434.31555	-485.40109	942.36865	-411.90784	-1012.50763	966.80768	-333.14716	-385.53552	778.82050	-322.58920	-1097.29382	747.71539	-284.06274	-623.78088	870.68823	-175.10359	-827.23444	865.85107	-161.58818	-745.82098	868.86725	-485.22583	-549.79736	416.72134	-273.82956	-914.96375	453.43839	-198.85388	-587.48004	201.37494	-546.67114	-929.37018	76.24604	-195.91373	
144	1.430	-700.56842	1386.28687	-90.91122	-753.26007	1496.41785	-376.07175	-624.56641	1431.79443	-280.84814	-825.30707	1421.37781	-173.76563	-561.77753	1263.41724	-360.37799	-928.52692	1237.12659	-268.27344	-729.01117	1150.71606	-176.92975	-761.68146	1256.82776	-424.57040	-486.47247	944.98517	-407.88269	-1016.20093	970.50220	-319.50262	-384.06882	781.43677	-321.35129	-1102.32361	752.20917	-266.82486	-623.39185	872.42902	-168.72667	-826.17371	868.02063	-153.59476	-749.27179	871.78314	-476.32568	-549.48828	422.28391	-257.31723	-917.12097	452.07272	-194.53546	-593.34137	207.29382	-530.21155	-929.29004	76.19859	-195.62808	
145	1.440	-700.63403	1388.38574	-81.50137	-754.18201	1498.06812	-366.02637	-625.15710	1433.66064	-272.81168	-824.77991	1422.24036	-163.44495	-562.74615	1265.32593	-354.22696	-928.05511	1239.58667	-255.97722	-728.04529	1151.28003	-173.65671	-763.35870	1258.67444	-415.35620	-487.29102	946.87885	-403.22574	-1018.95721	973.53461	-304.09036	-382.66635	783.46069	-319.40173	-1106.19507	756.74188	-249.34824	-623.00256	873.68408	-161.95593	-824.58899	870.60059	-145.87993	-752.21301	874.29901	-467.65598	-548.53448	427.76401	-238.51118	-918.35632	450.56897	-190.12572	-598.46460	211.16919	-511.25677	-928.89252	76.16962	-195.40622	
146	1.450	-698.30768	1389.87524	-72.46590	-754.63068	1500.32581	-355.72437	-624.73981	1435.84497	-263.68814	-823.61835	1423.16516	-152.56596	-563.48627	1266.59399	-347.63312	-927.28992	1241.86194	-244.35072	-724.78571	1153.71594	-160.15913	-765.03308	1260.57214	-405.51648	-487.76901	948.43939	-398.60144	-1021.63531	976.58954	-288.83090	-381.23331	786.32422	-317.98761	-1111.42456	761.33221	-231.16190	-621.91003	875.37036	-155.72079	-824.77142	871.79846	-137.05374	-754.63269	876.72540	-458.71289	-546.84827	432.64529	-221.94310	-919.54193	449.07587	-186.84229	-603.39014	215.06987	-492.48135	-928.28467	76.13239	-195.36060	
147	1.460	-696.82843	1391.25024	-62.84664	-755.09277	1502.61401	-345.01584	-624.61255	1438.44055	-255.75107	-822.96771	1424.56445	-143.33025	-564.57574	1268.73022	-341.76224	-927.02631	1244.49768	-233.25819	-724.18372	1154.14331	-155.47124	-766.55945	1263.06482	-396.47501	-488.72046	950.27881	-394.13785	-1023.82324	980.12372	-273.97263	-380.04605	788.95233	-316.90146	-1115.71948	766.36267	-213.26236	-620.55829	876.66205	-149.05728	-823.36151	873.60699	-128.54330	-757.12610	879.39648	-450.35178	-544.74896	437.81998	-204.96783	-921.73840	449.14417	-184.78307	-607.48669	217.08028	-471.26736	-927.18347	75.98817	-195.72256	
148	1.470	-694.68329	1391.41492	-54.29558	-755.89197	1504.92639	-335.84064	-624.53729	1439.64978	-245.72981	-821.67914	1426.63269	-133.12338	-565.02100	1269.78345	-334.36676	-925.96594	1247.01123	-222.27538				-768.37195	1265.25330	-387.06116	-488.90930	952.54382	-391.09164	-1026.42480	983.14081	-258.67105	-378.27048	791.13580	-314.79056	-1118.33777	771.84418	-194.98972	-618.95166	877.31323	-142.81519	-820.77069	874.19794	-119.27399	-758.89209	881.83124	-441.49002	-542.62927	443.34937	-189.37024	-920.38959	447.00705	-181.26628	-611.28113	217.13608	-450.04617	-926.20264	76.16576	-196.47124	
149	1.480	-692.30530	1392.82947	-45.28404	-755.99316	1506.63611	-325.76025	-623.94073	1440.89429	-236.36679	-820.45111	1427.99365	-122.94445	-566.37445	1270.84473	-327.56781	-925.80530	1249.31641	-210.81804	-720.52081	1157.28577	-136.72295	-769.41992	1267.40015	-378.61868	-490.16223	954.47174	-385.94818	-1028.58289	986.58289	-244.17038	-377.02979	793.96857	-314.20917	-1122.33435	777.49408	-177.40309	-617.49512	878.58685	-136.44167	-818.49652	875.30792	-111.46129	-761.87598	884.50110	-434.24106	-540.39911	448.92514	-174.75436	-918.63599	445.39948	-178.33621	-615.96539	214.81512	-428.16129	-925.63361	76.71910	-196.77893	
150	1.490	-690.47443	1392.65710	-37.69635	-756.65015	1508.94983	-317.12729	-623.19122	1442.61853	-229.91658	-817.84039	1428.87012	-112.16319	-566.38849	1272.40210	-320.60547	-924.52350	1251.52576	-199.81688				-770.53107	1268.96143	-368.49960	-491.19864	955.99359	-381.39185	-1030.53833	990.05798	-229.51436	-375.90155	795.91626	-313.52173	-1124.39258	782.49329	-157.86583	-615.90759	879.23944	-131.15218	-817.33252	874.69775	-105.67041	-763.16724	886.75983	-424.79849	-538.59479	454.80783	-161.29596	-917.08051	443.23737	-174.73454	-619.43256	211.00981	-406.16534	-925.77350	75.59140	-199.43890	
151	1.500	-687.82690	1393.66077	-28.52390	-755.80450	1509.62842	-306.24405	-622.51514	1443.52087	-221.16214	-816.19147	1430.04480	-102.58797	-567.26636	1273.52429	-314.23642	-923.81720	1253.51721	-188.78790	-716.99963	1160.08020	-121.08518	-771.41992	1270.17810	-358.67535	-491.92953	958.08679	-377.75287	-1032.06396	993.63391	-215.64577	-375.36258	798.24054	-312.02267	-1127.20972	787.71814	-140.96080	-613.47894	880.90369	-124.69913	-814.30676	876.18555	-98.36966	-764.86560	888.24127	-416.21002	-537.29254	460.25244	-148.98990	-915.99750	443.04010	-172.18010	-622.12726	206.41049	-383.27069	-925.57709	76.03965	-198.92831	
152	1.510	-685.34985	1394.25427	-18.74780	-756.00818	1511.48389	-297.66199	-621.59821	1444.18274	-212.10840	-814.49597	1430.89478	-93.38324	-567.76306	1274.64404	-307.67834	-922.96515	1255.76660	-178.08891	-714.78381	1164.14343	-104.35006	-772.51379	1271.78186	-350.13208	-493.53168	960.18518	-374.04190	-1033.82556	996.64075	-201.17900	-374.27328	799.77533	-311.35406	-1128.78796	792.13824	-121.41718	-612.18933	881.33173	-117.01031	-812.84131	876.87720	-88.03952	-766.48627	890.34473	-408.65817	-535.53265	465.16034	-136.88695	-914.83868	441.95291	-167.95766	-624.45917	200.56708	-360.56848	-925.14105	77.73493	-196.02872	
153	1.520	-682.96887	1394.27222	-11.98587	-755.29315	1512.21973	-287.52051	-620.12231	1444.45093	-205.49988	-812.88721	1430.74890	-83.35117	-567.99915	1275.36877	-300.45731	-921.65356	1257.58618	-167.87209	-714.29828	1163.34131	-103.63854	-773.33765	1272.51526	-340.16080	-494.02267	961.68683	-370.13507	-1035.31885	999.56879	-187.15379	-373.46408	801.39178	-309.74741	-1130.85034	796.68988	-103.41861	-610.41815	882.98914	-110.50394	-809.84161	877.88190	-78.11770	-767.29938	891.12848	-399.50464	-534.03601	470.11841	-126.82441	-914.04205	441.33475	-164.10730	-626.04980	193.87404	-336.63416	-924.97900	77.90398	-195.71692	
154	1.530	-680.23425	1394.91174	-3.19120	-754.62628	1512.79028	-278.69598	-619.14862	1445.11121	-196.93661	-810.49451	1431.84326	-74.29960	-568.38007	1276.01978	-293.64267	-920.78625	1258.95337	-156.81146	-711.49011	1164.16882	-94.86010	-774.16339	1273.49353	-331.69797	-495.13449	962.83630	-365.90930	-1036.52344	1002.23120	-173.17584	-372.73285	802.56677	-309.69958	-1132.10254	801.28516	-84.67143	-608.97845	884.10657	-104.72837	-808.38049	877.93903	-69.25407	-768.15302	891.86432	-391.52921	-532.56891	474.20306	-116.32227	-912.92841	442.00552	-160.58678	-625.76379	185.36417	-312.50107	-924.65308	77.82291	-195.50690	
155	1.540	-677.52588	1395.43311	5.66395	-753.73981	1513.19446	-269.41238	-617.42450	1445.39050	-189.44450	-808.38135	1432.92004	-64.64775	-568.78326	1276.30627	-286.66443	-919.10144	1259.94116	-146.46136	-710.69806	1164.17102	-86.84100	-774.51727	1274.01184	-322.16650	-496.40936	963.90155	-362.25513	-1037.49536	1005.02234	-159.53737	-372.37369	803.48267	-309.54596	-1133.14404	805.25275	-66.09750	-606.68921	884.89148	-97.52109	-806.98163	877.85724	-61.64370	-769.64795	892.70490	-382.97714	-530.77313	477.49414	-105.70079	-911.50507	442.38297	-156.89481	-625.75134	177.31801	-288.81290	-924.44672	77.92542	-195.02719	
